<?xml version="1.0" encoding="utf-8"?>
<!-- Generator: Adobe Illustrator 25.2.1, SVG Export Plug-In . SVG Version: 6.00 Build 0)  -->
<svg version="1.1" id="Layer_1" xmlns="http://www.w3.org/2000/svg" xmlns:xlink="http://www.w3.org/1999/xlink" x="0px" y="0px"
	 viewBox="0 0 51 51" style="enable-background:new 0 0 51 51;" xml:space="preserve">
<style type="text/css">
	.st0{fill:#408482;stroke:#FFFFFF;stroke-miterlimit:10;}
	.st1{fill:#408482;stroke:#FFFFFF;stroke-width:3;}
	.st2{fill:#FFFFFF;}
</style>
<g id="Group_47" transform="translate(-1062 -632)">
	<g id="single_marker_-_person" transform="translate(1062 632)">
		<g id="Ellipse_22">
			<circle class="st0" cx="25.5" cy="25.5" r="25"/>
			<circle class="st1" cx="25.5" cy="25.5" r="23.5"/>
		</g>
		<path class="st2" d="M25.5,25.5c2.8,0,5.1-2.3,5.1-5.1s-2.3-5.1-5.1-5.1s-5.1,2.3-5.1,5.1S22.7,25.5,25.5,25.5z M29.1,26.8h-0.7
			c-0.9,0.4-1.9,0.6-2.9,0.6s-2-0.2-2.9-0.6h-0.7c-3,0-5.4,2.4-5.4,5.4v1.7c0,1.1,0.9,1.9,1.9,1.9h14.1c1.1,0,1.9-0.9,1.9-1.9v-1.7
			C34.5,29.2,32.1,26.8,29.1,26.8z"/>
	</g>
</g>
</svg>
